<svg width="50" height="44" viewBox="0 0 50 44" fill="none" xmlns="http://www.w3.org/2000/svg">
<path fill-rule="evenodd" clip-rule="evenodd" d="M50.0056 21.879C50.0056 22.7078 49.6763 23.5026 49.0903 24.0887C48.5042 24.6747 47.7094 25.004 46.8806 25.004H10.6743L24.0931 38.4165C24.3836 38.707 24.6141 39.0519 24.7714 39.4316C24.9286 39.8112 25.0095 40.2181 25.0095 40.629C25.0095 41.0399 24.9286 41.4467 24.7714 41.8264C24.6141 42.206 24.3836 42.5509 24.0931 42.8415C23.8025 43.132 23.4576 43.3625 23.078 43.5197C22.6984 43.677 22.2915 43.7579 21.8806 43.7579C21.4697 43.7579 21.0628 43.677 20.6832 43.5197C20.3036 43.3625 19.9586 43.132 19.6681 42.8415L0.918086 24.0915C0.627066 23.8012 0.396172 23.4563 0.238632 23.0767C0.0810914 22.697 0 22.29 0 21.879C0 21.4679 0.0810914 21.0609 0.238632 20.6812C0.396172 20.3016 0.627066 19.9567 0.918086 19.6665L19.6681 0.916448C20.2549 0.329657 21.0507 0 21.8806 0C22.7104 0 23.5063 0.329657 24.0931 0.916448C24.6799 1.50324 25.0095 2.2991 25.0095 3.12895C25.0095 3.9588 24.6799 4.75466 24.0931 5.34145L10.6743 18.754H46.8806C47.7094 18.754 48.5042 19.0832 49.0903 19.6692C49.6763 20.2553 50.0056 21.0501 50.0056 21.879Z" fill="black"/>
</svg>
