<svg width="13" height="63" viewBox="0 0 13 63" fill="none" xmlns="http://www.w3.org/2000/svg">
<path d="M6.25 50C7.90761 50 9.49732 50.6585 10.6694 51.8306C11.8415 53.0027 12.5 54.5924 12.5 56.25C12.5 57.9076 11.8415 59.4973 10.6694 60.6694C9.49732 61.8415 7.90761 62.5 6.25 62.5C4.5924 62.5 3.00269 61.8415 1.83059 60.6694C0.658484 59.4973 2.66028e-06 57.9076 2.58783e-06 56.25C2.51537e-06 54.5924 0.658484 53.0027 1.83059 51.8306C3.00269 50.6585 4.5924 50 6.25 50ZM6.25 25C7.9076 25 9.49732 25.6585 10.6694 26.8306C11.8415 28.0027 12.5 29.5924 12.5 31.25C12.5 32.9076 11.8415 34.4973 10.6694 35.6694C9.49732 36.8415 7.9076 37.5 6.25 37.5C4.5924 37.5 3.00269 36.8415 1.83059 35.6694C0.658483 34.4973 1.5675e-06 32.9076 1.49504e-06 31.25C1.42259e-06 29.5924 0.658483 28.0027 1.83059 26.8306C3.00269 25.6585 4.5924 25 6.25 25ZM6.25 -2.73196e-07C7.9076 -3.45652e-07 9.49731 0.658481 10.6694 1.83058C11.8415 3.00269 12.5 4.5924 12.5 6.25C12.5 7.9076 11.8415 9.49731 10.6694 10.6694C9.49731 11.8415 7.9076 12.5 6.25 12.5C4.5924 12.5 3.00269 11.8415 1.83058 10.6694C0.658482 9.49731 4.74713e-07 7.9076 4.02257e-07 6.25C3.29801e-07 4.5924 0.658482 3.00269 1.83058 1.83058C3.00269 0.658481 4.5924 -2.0074e-07 6.25 -2.73196e-07Z" fill="black"/>
</svg>
